<svg class="social_svg github_svg" width="32" height="25" viewBox="0 0 32 25" fill="none" xmlns="http://www.w3.org/2000/svg">
<path d="M12.1155 17.2326C12.1155 18.5932 11.4059 20.8197 9.72627 20.8197C8.04663 20.8197 7.33702 18.5932 7.33702 17.2326C7.33702 15.8719 8.04663 13.6454 9.72627 13.6454C11.4059 13.6454 12.1155 15.8719 12.1155 17.2326V17.2326ZM31.2491 13.9449C31.2491 16.0217 31.0407 18.2221 30.1098 20.1296C27.6424 25.1164 20.8588 24.9993 16.0021 24.9993C11.0674 24.9993 3.88009 25.175 1.31507 20.1296C0.364572 18.2416 0 16.0217 0 13.9449C0 11.2171 0.904921 8.63907 2.70174 6.54928C2.36321 5.52067 2.20046 4.43997 2.20046 3.3723C2.20046 1.9726 2.51946 1.26949 3.15095 0C6.10008 0 7.98804 0.58592 10.2341 2.34368C12.122 1.89447 14.0621 1.69266 16.0086 1.69266C17.7664 1.69266 19.5372 1.88145 21.2429 2.2916C23.4563 0.553369 25.3443 0 28.2609 0C28.8989 1.26949 29.2114 1.9726 29.2114 3.3723C29.2114 4.43997 29.0421 5.50114 28.7101 6.51022C30.5004 8.61953 31.2491 11.2171 31.2491 13.9449V13.9449ZM27.063 17.2326C27.063 14.3746 25.3248 11.8551 22.278 11.8551C21.0476 11.8551 19.8692 12.0765 18.6323 12.2457C17.6622 12.3955 16.6922 12.4541 15.6961 12.4541C14.7066 12.4541 13.7366 12.3955 12.76 12.2457C11.5426 12.0765 10.3513 11.8551 9.11431 11.8551C6.06753 11.8551 4.3293 14.3746 4.3293 17.2326C4.3293 22.9485 9.56352 23.8274 14.1207 23.8274H17.2586C21.8353 23.8274 27.063 22.955 27.063 17.2326V17.2326ZM21.6856 13.6454C20.0059 13.6454 19.2963 15.8719 19.2963 17.2326C19.2963 18.5932 20.0059 20.8197 21.6856 20.8197C23.3652 20.8197 24.0748 18.5932 24.0748 17.2326C24.0748 15.8719 23.3652 13.6454 21.6856 13.6454Z" fill="currentColor"/>
</svg>
