<svg class="social_svg linkedin_svg" width="25" height="25" viewBox="0 0 25 25" fill="none" xmlns="http://www.w3.org/2000/svg">
<path d="M5.59611 25H0.412956V8.30878H5.59611V25ZM3.00174 6.03194C1.34434 6.03194 0 4.65914 0 3.00174C1.1863e-08 2.20563 0.316254 1.44213 0.87919 0.87919C1.44213 0.316254 2.20563 0 3.00174 0C3.79785 0 4.56136 0.316254 5.12429 0.87919C5.68723 1.44213 6.00348 2.20563 6.00348 3.00174C6.00348 4.65914 4.65859 6.03194 3.00174 6.03194ZM24.995 25H19.823V16.8748C19.823 14.9384 19.7839 12.4551 17.1282 12.4551C14.4334 12.4551 14.0204 14.5589 14.0204 16.7353V25H8.84283V8.30878H13.8139V10.5856H13.8865C14.5785 9.2742 16.2688 7.89024 18.7906 7.89024C24.0363 7.89024 25.0006 11.3446 25.0006 15.8313V25H24.995Z" fill="currentColor"/>
</svg>
